<svg width="139" height="139" viewBox="0 0 139 139" fill="none" xmlns="http://www.w3.org/2000/svg">
<circle cx="69.5" cy="69.5" r="69.5" fill="white"/>
<path d="M0 69.5039C0 31.1232 31.1375 0 69.5 0C107.862 0 139 31.1232 139 69.5039C139 107.889 107.862 139 69.5 139C52.498 139 36.9488 132.901 24.8551 122.773C36.2028 104.005 69.3429 48.238 69.3429 48.238L85.7559 75.7246C85.7559 75.7246 77.1175 75.7678 69.3037 75.7246C61.4506 75.6814 59.2124 77.3701 55.7963 82.5816C52.9692 86.9093 46.2941 98.2158 46.137 98.424C45.3517 99.6689 45.8229 100.875 47.6683 100.875H100.873H127.888C129.498 100.875 130.44 99.7474 129.419 98.3454L70.7172 2.3524C69.9319 1.02894 68.6754 1.14674 67.9686 2.3524L8.1672 102.198C2.98416 92.4546 0 81.3248 0 69.5039Z" fill="#ff001a"/>
</svg>
